HIERARCHY
ROOT hip
{
  OFFSET 0 0 0
  CHANNELS 6 Xposition Yposition Zposition Zrotation Yrotation Xrotation
  JOINT abdomen
  {
    OFFSET 0 20.6881 -0.73152
    CHANNELS 3 Zrotation Xrotation Yrotation
    JOINT chest
    {
      OFFSET 0 11.7043 -0.48768
      CHANNELS 3 Zrotation Xrotation Yrotation
      JOINT neck
      {
        OFFSET 0 22.1894 -2.19456
        CHANNELS 3 Zrotation Xrotation Yrotation
        JOINT head
        {
          OFFSET -0.24384 7.07133 1.2192
          CHANNELS 3 Zrotation Xrotation Yrotation
          JOINT leftEye
          {
            OFFSET 4.14528 8.04674 8.04672
            CHANNELS 3 Zrotation Xrotation Yrotation
            End Site
            {
              OFFSET 1 0 0
            }
          }
          JOINT rightEye
          {
            OFFSET -3.6576 8.04674 8.04672
            CHANNELS 3 Zrotation Xrotation Yrotation
            End Site
            {
              OFFSET 1 0 0
            }
          }
        }
      }
      JOINT rCollar
      {
        OFFSET -2.68224 19.2634 -4.8768
        CHANNELS 3 Zrotation Xrotation Yrotation
        JOINT rShldr
        {
          OFFSET -8.77824 -1.95073 1.46304
          CHANNELS 3 Zrotation Xrotation Yrotation
          JOINT rForeArm
          {
            OFFSET -28.1742 -1.7115 0.48768
            CHANNELS 3 Zrotation Xrotation Yrotation
            JOINT rHand
            {
              OFFSET -22.5879 0.773209 7.07136
              CHANNELS 3 Zrotation Xrotation Yrotation
              JOINT rThumb1
              {
                OFFSET -1.2192 -0.487915 3.41376
                CHANNELS 3 Zrotation Xrotation Yrotation
                JOINT rThumb2
                {
                  OFFSET -3.37035 -0.52449 3.41376
                  CHANNELS 3 Zrotation Xrotation Yrotation
                  End Site
                  {
                    OFFSET -1.78271 -1.18214 1.43049
                  }
                }
              }
              JOINT rIndex1
              {
                OFFSET -7.75947 0.938293 5.60832
                CHANNELS 3 Zrotation Xrotation Yrotation
                JOINT rIndex2
                {
                  OFFSET -2.54057 -0.884171 1.56538
                  CHANNELS 3 Zrotation Xrotation Yrotation
                  End Site
                  {
                    OFFSET -1.62519 -0.234802 1.16502
                  }
                }
              }
              JOINT rMid1
              {
                OFFSET -8.24714 1.18213 3.41376
                CHANNELS 3 Zrotation Xrotation Yrotation
                JOINT rMid2
                {
                  OFFSET -3.10165 -0.590103 1.0647
                  CHANNELS 3 Zrotation Xrotation Yrotation
                  End Site
                  {
                    OFFSET -2.48547 -0.328903 0.83742
                  }
                }
              }
              JOINT rRing1
              {
                OFFSET -8.82822 0.546677 1.51678
                CHANNELS 3 Zrotation Xrotation Yrotation
                JOINT rRing2
                {
                  OFFSET -2.60934 -0.819778 -0.0198488
                  CHANNELS 3 Zrotation Xrotation Yrotation
                  End Site
                  {
                    OFFSET -2.33842 -0.294052 0.168128
                  }
                }
              }
              JOINT rPinky1
              {
                OFFSET -8.27202 -0.0477905 -0.4584
                CHANNELS 3 Zrotation Xrotation Yrotation
                JOINT rPinky2
                {
                  OFFSET -1.82734 -0.647385 -0.700984
                  CHANNELS 3 Zrotation Xrotation Yrotation
                  End Site
                  {
                    OFFSET -1.69225 -0.51767 -0.607171
                  }
                }
              }
            }
          }
        }
      }
      JOINT lCollar
      {
        OFFSET 2.68224 19.2634 -4.8768
        CHANNELS 3 Zrotation Xrotation Yrotation
        JOINT lShldr
        {
          OFFSET 8.77824 -1.95073 1.46304
          CHANNELS 3 Zrotation Xrotation Yrotation
          JOINT lForeArm
          {
            OFFSET 28.1742 -1.7115 0.48768
            CHANNELS 3 Zrotation Xrotation Yrotation
            JOINT lHand
            {
              OFFSET 22.5879 0.773209 7.07136
              CHANNELS 3 Zrotation Xrotation Yrotation
              JOINT lThumb1
              {
                OFFSET 1.2192 -0.487915 3.41376
                CHANNELS 3 Zrotation Xrotation Yrotation
                JOINT lThumb2
                {
                  OFFSET 3.37035 -0.52449 3.41376
                  CHANNELS 3 Zrotation Xrotation Yrotation
                  End Site
                  {
                    OFFSET 1.78271 -1.18214 1.43049
                  }
                }
              }
              JOINT lIndex1
              {
                OFFSET 7.75947 0.938293 5.60832
                CHANNELS 3 Zrotation Xrotation Yrotation
                JOINT lIndex2
                {
                  OFFSET 2.54057 -0.884171 1.56538
                  CHANNELS 3 Zrotation Xrotation Yrotation
                  End Site
                  {
                    OFFSET 1.62519 -0.234802 1.16502
                  }
                }
              }
              JOINT lMid1
              {
                OFFSET 8.24714 1.18213 3.41376
                CHANNELS 3 Zrotation Xrotation Yrotation
                JOINT lMid2
                {
                  OFFSET 3.10165 -0.590103 1.0647
                  CHANNELS 3 Zrotation Xrotation Yrotation
                  End Site
                  {
                    OFFSET 2.48547 -0.328903 0.83742
                  }
                }
              }
              JOINT lRing1
              {
                OFFSET 8.82822 0.546677 1.51678
                CHANNELS 3 Zrotation Xrotation Yrotation
                JOINT lRing2
                {
                  OFFSET 2.60934 -0.819778 -0.0198488
                  CHANNELS 3 Zrotation Xrotation Yrotation
                  End Site
                  {
                    OFFSET 2.33842 -0.294052 0.168128
                  }
                }
              }
              JOINT lPinky1
              {
                OFFSET 8.27202 -0.0477905 -0.4584
                CHANNELS 3 Zrotation Xrotation Yrotation
                JOINT lPinky2
                {
                  OFFSET 1.82734 -0.647385 -0.700984
                  CHANNELS 3 Zrotation Xrotation Yrotation
                  End Site
                  {
                    OFFSET 1.69225 -0.51767 -0.607171
                  }
                }
              }
            }
          }
        }
      }
    }
  }
  JOINT rButtock
  {
    OFFSET -8.77824 4.35084 1.2192
    CHANNELS 3 Zrotation Xrotation Yrotation
    JOINT rThigh
    {
      OFFSET 0 -1.70687 -2.19456
      CHANNELS 3 Zrotation Xrotation Yrotation
      JOINT rShin
      {
        OFFSET 0 -36.8199 0.73152
        CHANNELS 3 Zrotation Xrotation Yrotation
        JOINT rFoot
        {
          OFFSET 0.73152 -45.1104 -5.12064
          CHANNELS 3 Zrotation Xrotation Yrotation
          End Site
          {
            OFFSET -1.1221 -3.69964 12.103
          }
        }
      }
    }
  }
  JOINT lButtock
  {
    OFFSET 8.77824 4.35084 1.2192
    CHANNELS 3 Zrotation Xrotation Yrotation
    JOINT lThigh
    {
      OFFSET 0 -1.70687 -2.19456
      CHANNELS 3 Zrotation Xrotation Yrotation
      JOINT lShin
      {
        OFFSET 0 -36.8199 0.73152
        CHANNELS 3 Zrotation Xrotation Yrotation
        JOINT lFoot
        {
          OFFSET -0.73152 -45.1104 -5.12064
          CHANNELS 3 Zrotation Xrotation Yrotation
          End Site
          {
            OFFSET 1.1221 -3.69964 12.103
          }
        }
      }
    }
  }
}
MOTION
Frames:	4
Frame Time:	0.03333
8.840836713090539 -2.1958417892456055 37.405850113369524 -0.4238279163837433 -15.442277938127518 12.839302718639374 -14.515911340713501 13.689664900302887 -6.9024308770895 8.525937795639038 -8.697754740715027 -1.5816765278577805 1.8413616344332695 9.360252991318703 7.711745202541351 2.5514942407608032 -31.09720140695572 13.783951252698898 -0.09147109114564955 -0.43252598494291306 0.32130510779097676 -0.56818553712219 0.0029195216484367847 -0.33799638971686363 -0.05857141921296716 -0.09386300342157483 0.23074038326740265 101.10461354255676 39.09659206867218 -39.25046503543854 -26.784844994544983 -43.20293873548508 88.31939220428467 -11.615113019943237 -65.04645466804504 -13.773273378610611 0.22299456177279353 -0.5766997067257762 -0.37781110033392906 -0.03035684349015355 0.017231422243639827 0.2415017830207944 -0.1721292024012655 -0.05110196478199214 -0.13804057845845819 6.828150451183319 3.411684036254883 0.46747148036956787 -0.6927881855517626 0.5435079988092184 0.47332250978797674 0.6117542088031769 0.8767088502645493 1.0374515410512686 0.743210781365633 0.42653225362300873 -0.03968720091506839 8.897604122757912 0.05835589952766895 -0.5994356190785766 -0.5891964118927717 0.3460646001622081 -0.10840523871593177 1.7911840416491032 -0.22685092873871326 0.09978890419006348 -0.14932834077626467 -0.6499845301732421 -0.4835628066211939 -40.1957505941391 -9.572648406028748 -78.53107273578644 11.884157359600067 -5.075187385082245 -18.61742466688156 9.056980311870575 37.01521396636963 -2.7564891055226326 -0.013142331736162305 0.47315327916294336 -0.35191759932786226 -0.32161454670131207 -0.8014324866235256 -0.9753506910055876 -0.5667899921536446 1.2063897214829922 0.40892434772104025 -6.810461953282356 4.744716435670853 0.6197693198919296 1.1362380534410477 -0.10844514705240726 0.33293617190793157 -1.7123286053538322 0.5627566622570157 1.3018521387130022 0.9242860414087772 -0.1291999442037195 0.832595732063055 -10.171864628791809 0.3328594146296382 0.18796797143295407 0.15230485936626792 0.9118112549185753 0.1841880683787167 -3.07062104344368 0.31324949115514755 -0.19148298539221287 -0.10056621045805514 -0.940459594130516 0.11133690364658833 -17.19061017036438 -58.88240039348602 -10.3176748752594 -197.73682594299316 77.18865394592285 196.66475772857666 -0.2610362693667412 -5.646900907158852 3.0685312673449516 0.45641256496310234 -0.35689582116901875 -0.8143323194235563 -0.5512100458145142 -43.4880656003952 20.512695014476776 4.693830907344818 75.40720582008362 -12.285405099391937 18.008905202150345 -26.511192619800568 39.096216559410095
8.753182159736753 -2.237091064453125 40.26281422469765 -2.244276702404022 -15.592163801193237 13.713651895523071 -14.648718237876892 14.073027670383453 -7.4444932490587234 8.536561354994774 -8.716392740607262 -1.6485641151666641 1.519831158220768 9.378303587436676 7.243005707859993 2.0593397319316864 -30.24937391281128 12.964748293161392 -0.1275086123496294 -0.47205671668052673 0.3445694572292268 -0.5682343617081642 -0.02667417051270604 -0.3369779046624899 -0.014221910387277603 -0.03095067775575444 0.20476951729506254 98.10421943664551 38.72455894947052 -34.85141962766647 -27.042911052703857 -44.79363888502121 90.92885971069336 -10.773540437221527 -65.79461932182312 -14.14877861738205 0.16256162663921714 -0.5494631733745337 -0.31360882334411144 -0.05530075868591666 0.028719994006678462 0.12392576783895493 -0.22197331069037318 -0.10336506413295865 -0.10033142287284136 6.761541813611984 3.441361002624035 0.4180827084928751 -0.8230388537049294 0.6592490058392286 0.5817231070250273 0.5990680307149887 0.9237335063517094 1.1028511729091406 0.7311182096600533 0.44655611738562584 0.013386632781475782 8.8680200278759 0.08601374924182892 -0.6023688241839409 -0.6660510040819645 0.43662276584655046 -0.03103650058619678 1.7574014514684677 -0.15127235557883978 0.04329584073275328 -0.21815617103129625 -0.6741127604618669 -0.5327811324968934 -38.05191457271576 -6.872554421424866 -77.12081015110016 12.841669768095016 -6.521085798740387 -21.204428672790527 7.6227883994579315 35.47760009765625 -1.6233079321682453 -0.05742711131460965 0.38175612688064575 -0.37452975288033485 -0.2519984822720289 -0.8127996046096087 -0.966956801712513 -0.5329279415309429 1.2048134207725525 0.4874286660924554 -6.820295602083206 4.716708138585091 0.5906805954873562 1.0889134928584099 -0.2772048767656088 0.3329077991656959 -1.6597614996135235 0.6843090523034334 1.2538050580769777 0.9255461767315865 -0.0242915831040591 0.8130553364753723 -10.142488405108452 0.30388372018933296 0.21619306644424796 0.21359279053285718 0.9524906426668167 0.18033482367172837 -2.911903001368046 0.35778606310486794 -0.25846595875918865 -0.009007392218336463 -0.9899284970015287 -0.03842744277790189 -16.7960786819458 -63.53914976119995 -9.640872403979301 -186.13657236099243 77.20083117485046 185.1967477798462 -0.4956430569291115 -6.000892817974091 3.8618985190987587 0.435223700478673 -0.4703587107360363 -0.8494940679520369 -4.699847102165222 -40.49204349517822 16.374558806419373 -0.5153918266296387 73.56046199798584 -9.982939884066582 18.449003398418427 -27.1725931763649 39.57313746213913
8.594395281746984 -2.3819355964660645 43.22460073325783 5.1903533935546875 -17.764086574316025 15.426309406757355 -14.475878030061722 15.20309329032898 -7.090150639414787 8.16338561475277 -9.166807383298874 -1.5265802666544914 1.2995319440960884 9.42719154059887 7.409621849656105 0.9558702260255814 -30.878365337848663 13.397250473499298 -0.1804585405625403 -0.6291752401739359 0.47220549546182156 -0.4202202195301652 0.003735814243555069 -0.34774512983858585 0.13473794097080827 0.024002273858059198 0.0034047395456582308 93.92163634300232 39.596094489097595 -23.91490012407303 -27.85305082798004 -49.26325857639313 97.73338794708252 -10.904695093631744 -67.68537282943726 -14.592686891555786 -0.018771120230667293 -0.43889836873859167 -0.21188252605497837 0.000265433918684721 0.0956896401476115 0.0020269746892154217 -0.2695841551758349 -0.14159450540319085 -0.13184098759666085 6.809324026107788 3.6410896852612495 0.42801719158887863 -0.8987710252404213 0.6190292816609144 0.7399378158152103 0.690524484962225 1.0017209965735674 1.2333003245294094 0.8457580022513866 0.47543495893478394 0.10753728216513991 8.862727358937263 0.02194357104599476 -0.3943999344483018 -0.6667789723724127 0.5108782555907965 -0.044758430449292064 1.7812268435955048 -0.15690495260059834 0.3871404519304633 -0.3107109689153731 -0.5836375756189227 -0.6789850769564509 -33.62011134624481 -5.479117333889008 -81.28031551837921 14.681049585342407 -7.679024934768677 -23.747575879096985 7.246934473514557 38.43165636062622 -1.3611945882439613 -0.007287320913746953 0.2724592317827046 -0.39233647752553225 -0.22708241594955325 -0.9131718054413795 -0.975888054817915 -0.46074106357991695 1.0768526885658503 0.4599275579676032 -6.90862275660038 4.791460633277893 0.6289661955088377 1.094284113496542 -0.3812101297080517 0.279671021271497 -1.6802047938108444 0.8935541287064552 1.222998546436429 1.4955130778253078 -0.05863986792974174 0.7247070595622063 -10.241364017128944 0.247571412473917 0.2729746769182384 0.2721901307813823 1.1768192052841187 0.11508837109431624 -2.8751426562666893 0.4347424954175949 -0.4426144855096936 -0.04778804839588702 -1.0634215269237757 -0.2596813556738198 -17.85480961203575 -70.4683256149292 -8.934001699090004 -169.2471742630005 80.30733346939087 170.64713716506958 -0.9635550901293755 -6.644187793135643 1.9899271801114082 0.305295882280916 -0.5290555860847235 -0.7814888376742601 -6.172833144664764 -38.31299543380737 15.449332147836685 -6.207947283983231 74.38793420791626 -4.208240434527397 18.246121108531952 -26.310509741306305 39.802361726760864
8.3458331245929 -2.4035260677337646 46.2226240048185 11.597500294446945 -12.891116291284561 13.200797438621521 -15.159185528755188 16.2896990776062 -5.956532433629036 7.3947228491306305 -9.62225653231144 -1.1152288969606161 0.502052865922451 10.058569461107254 6.47684209048748 0.2935308963060379 -30.542740523815155 11.456896215677261 -0.24797441437840462 -0.797922145575285 0.48840788193047047 -0.22354148095473647 0.017672718968242407 -0.29770449735224247 0.3329006745480001 0.07891329238191247 -0.19371014088392258 84.45904970169067 38.99771511554718 -10.809673145413399 -28.379732072353363 -51.73410415649414 101.34300827980042 -9.709354564547539 -66.62043929100037 -15.573146939277649 -0.2451022923924029 -0.398536529392004 -0.026057995855808258 -0.045042692217975855 0.20117975771427155 -0.11024932027794421 -0.3177580120973289 -0.1540138036943972 -0.19652602029964328 6.794345900416374 3.7174779921770096 0.4855311708524823 -1.0342846903949976 0.6822769436985254 0.9213872440159321 0.8333469182252884 1.0546841472387314 1.4185288175940514 0.9218003042042255 0.489107770845294 0.16719717532396317 8.876829072833061 0.12248441576957703 -0.2514772745780647 -0.664167171344161 0.5461976677179337 0.0011250295210629702 1.7346460931003094 -0.0467871967703104 0.5029371147975326 -0.447756196372211 -0.4684864031150937 -0.8392120711505413 -27.336197197437286 2.523571103811264 -82.80635833740234 16.134691536426544 -8.771347850561142 -25.804041624069214 6.356770992279053 41.972885727882385 -1.699831523001194 0.08344292524270713 0.0735024648020044 -0.3673244593665004 -0.16925116069614887 -0.8930612727999687 -0.9699068963527679 -0.3932135598734021 1.0153795592486858 0.3934476664289832 -6.943173632025719 4.7995800152421 0.6139997206628323 1.003231666982174 -0.6056014727801085 0.18810824258252978 -1.6089638136327267 1.0348828230053186 1.1556301731616259 1.426629927009344 -0.07916828035376966 0.6509125325828791 -10.151834562420845 0.1920200977474451 0.280804003123194 0.2500391914509237 1.249288721010089 0.1362126530148089 -2.626858949661255 0.4727311246097088 -0.6653678370639682 -0.06042022607289255 -1.1359444353729486 -0.44455351307988167 -19.585061073303223 -74.56515312194824 -11.031739935278893 -141.20478630065918 80.0600016117096 143.77149939537048 -0.9262676909565926 -5.858158394694328 1.8303417786955833 0.20155356964096427 -0.5398790538311005 -0.7394823431968689 -6.673496961593628 -35.112926959991455 14.330122768878937 -8.09680849313736 74.53943610191345 -1.5751748532056808 18.041995614767075 -27.766034603118896 38.26677829027176
